<svg xmlns="http://www.w3.org/2000/svg" width="32" height="32" viewBox="0 0 1080 1080" version="1.1"><path d="M 369.816 319.749 C 380.440 319.911, 397.540 319.911, 407.816 319.748 C 418.092 319.586, 409.400 319.453, 388.500 319.454 C 367.600 319.454, 359.192 319.587, 369.816 319.749 M 451.797 319.745 C 456.361 319.930, 463.561 319.929, 467.797 319.742 C 472.034 319.555, 468.300 319.404, 459.500 319.405 C 450.700 319.406, 447.234 319.559, 451.797 319.745 M 514.292 319.742 C 518.027 319.935, 523.877 319.934, 527.292 319.739 C 530.706 319.545, 527.650 319.387, 520.500 319.389 C 513.350 319.390, 510.556 319.550, 514.292 319.742 M 568.318 319.749 C 580.317 319.909, 599.667 319.909, 611.318 319.749 C 622.968 319.589, 613.150 319.458, 589.500 319.458 C 565.850 319.459, 556.318 319.590, 568.318 319.749 M 659.310 319.748 C 666.905 319.918, 679.055 319.918, 686.310 319.747 C 693.564 319.576, 687.350 319.437, 672.500 319.438 C 657.650 319.438, 651.714 319.578, 659.310 319.748 M 771.816 319.749 C 782.440 319.911, 799.540 319.911, 809.816 319.748 C 820.092 319.586, 811.400 319.453, 790.500 319.454 C 769.600 319.454, 761.192 319.587, 771.816 319.749 M 468.460 401 C 468.460 425.475, 468.590 435.488, 468.749 423.250 C 468.908 411.013, 468.908 390.988, 468.749 378.750 C 468.590 366.513, 468.460 376.525, 468.460 401 M 676.768 374.725 C 678.565 374.947, 681.265 374.943, 682.768 374.715 C 684.271 374.486, 682.800 374.304, 679.500 374.310 C 676.200 374.315, 674.971 374.502, 676.768 374.725 M 506.206 606.557 C 497.545 608.888, 489.919 613.156, 483.972 619 C 476.854 625.994, 473.671 632.486, 473.185 641 C 472.849 646.890, 473.049 647.719, 475.313 649.836 C 477.331 651.723, 478.194 651.967, 479.800 651.107 C 481.840 650.016, 484 645.213, 484 641.771 C 484 638.975, 494.718 628.683, 500.882 625.560 C 515.151 618.329, 527.171 622.873, 530.015 636.573 C 533.104 651.452, 525.212 668.846, 512.603 674.950 C 504.593 678.828, 504.832 679.335, 505.186 659.206 C 505.463 643.522, 505.290 641.092, 503.727 638.706 C 501.800 635.765, 497.104 634.962, 495.211 637.250 C 493.627 639.165, 492.736 685.416, 493.789 711.110 C 494.644 731.985, 494.894 734.039, 497.042 737.860 C 499.474 742.188, 502.650 743.331, 504.857 740.673 C 505.560 739.825, 506.056 731.829, 506.229 718.539 L 506.500 697.733 520 708.223 C 527.425 713.992, 537.883 722.632, 543.240 727.423 C 551.227 734.567, 553.476 736.078, 555.740 735.817 C 557.960 735.562, 558.775 734.705, 559.905 731.436 C 562.727 723.273, 560.684 720.676, 536.169 701.262 C 528.101 694.873, 521.327 689.515, 521.116 689.355 C 520.904 689.195, 524.054 685.523, 528.116 681.195 C 535.768 673.040, 541.071 663.994, 542.931 655.924 C 544.445 649.356, 544.211 636.234, 542.458 629.460 C 537.257 609.354, 524.875 601.532, 506.206 606.557 M 819.124 610.127 C 800.905 619.315, 783.044 654.048, 782.642 681.068 C 782.511 689.881, 782.737 691.100, 785.510 696.525 C 793.990 713.113, 816.631 716.774, 835.109 704.546 C 837.226 703.146, 839.353 702, 839.836 702 C 840.320 702, 840.995 704.681, 841.338 707.957 C 842.290 717.066, 845.979 730.600, 848.142 732.922 C 849.207 734.065, 850.905 735, 851.917 735 C 855.975 735, 856.218 733.114, 854.581 714.304 C 853.727 704.497, 852.725 689.800, 852.355 681.644 L 851.681 666.815 859.590 667.011 C 870.732 667.287, 870.819 667.272, 873.545 664.545 C 876.870 661.221, 876.985 655.354, 873.750 654.051 C 872.513 653.553, 863.400 652.625, 853.500 651.988 C 827.634 650.326, 816.705 652.356, 813.321 659.453 C 811.687 662.879, 811.700 663.121, 813.651 665.734 C 816.110 669.028, 819.050 669.837, 825 668.859 C 827.475 668.452, 831.354 668.092, 833.619 668.060 C 837.616 668.002, 837.757 668.111, 838.358 671.750 C 838.699 673.813, 838.983 677.591, 838.989 680.146 C 838.999 684.190, 838.557 685.182, 835.582 687.794 C 824.630 697.410, 802.962 697.780, 797.967 688.436 C 795.799 684.379, 796.259 672.808, 798.941 663.926 C 804.625 645.101, 820.396 621, 827.030 621 C 828.061 621, 830.368 622.819, 832.155 625.043 C 836.246 630.134, 839.341 630.168, 839.823 625.127 C 840.061 622.632, 839.320 620.550, 836.976 617.127 C 831.041 608.461, 826.195 606.561, 819.124 610.127 M 435 610.461 C 430.913 611.888, 429.525 614.314, 422.106 633 C 411.306 660.201, 402.858 689.575, 397.514 718.500 C 394.122 736.858, 393.970 742.414, 396.780 745.224 C 398.594 747.038, 399.291 747.188, 401.410 746.223 C 402.781 745.598, 404.605 743.731, 405.462 742.073 C 406.585 739.903, 416 701.035, 416 698.572 C 416 698.420, 419.712 698.006, 424.250 697.653 C 431.805 697.065, 444.850 695.068, 451 693.559 C 453.420 692.965, 453.673 693.418, 458.895 707.723 C 465.227 725.064, 467.308 729.526, 470.797 733.250 C 473.897 736.558, 475.546 736.717, 477.077 733.857 C 479.063 730.144, 477.522 721.529, 471.920 705.039 L 466.506 689.104 469.753 685.755 C 475.513 679.812, 472.878 672.554, 465.193 673.193 L 461.500 673.500 459.200 666 C 457.935 661.875, 454.473 649.190, 451.507 637.811 C 446.326 617.933, 444.002 611.348, 441.610 609.765 C 440.222 608.847, 439.365 608.937, 435 610.461 M 663.795 624.730 C 661.892 629.033, 661.713 631.210, 661.812 648.802 C 661.929 669.339, 663.189 687.453, 665.585 703 C 667.528 715.616, 668.408 718.034, 672.497 721.997 C 675.811 725.209, 676.036 725.277, 677.873 723.615 C 680.670 721.083, 680.967 717.758, 679.350 707.060 C 676.649 689.180, 675.029 669.547, 674.396 647 C 673.710 622.579, 673.139 620, 668.421 620 C 666.362 620, 665.496 620.885, 663.795 624.730 M 337.337 625.953 C 322.697 628.530, 313.120 631.023, 311.452 632.691 C 308.990 635.153, 309.622 641.302, 312.622 644.076 L 315.245 646.500 314.599 660.447 C 314.127 670.619, 313.553 674.837, 312.476 676.026 C 310.579 678.122, 310.575 684.055, 312.468 686.559 C 313.601 688.057, 313.949 691.923, 313.990 703.500 C 314.052 720.620, 315.432 725.621, 320.872 728.434 C 326.903 731.553, 341.400 729.544, 360.572 722.933 C 374.905 717.991, 379.523 715.842, 384.335 711.875 C 387.447 709.311, 388.056 708.218, 387.805 705.650 C 387.326 700.762, 383.737 700.038, 373.671 702.799 C 352.397 708.634, 338.966 711.856, 333.250 712.496 L 327 713.196 327 700.666 C 327 689.594, 327.204 688.075, 328.750 687.620 C 329.712 687.337, 338.691 685.726, 348.702 684.040 C 368.518 680.702, 369.658 680.419, 372.250 678.193 C 374.731 676.062, 374.424 673.779, 371.250 670.751 C 367.156 666.845, 363.350 665.737, 356.500 666.459 C 350.549 667.086, 334.573 669.566, 330.250 670.534 C 328 671.038, 328 671.036, 328 657.133 L 328 643.227 332.750 642.558 C 342.630 641.166, 362.570 637.895, 364.251 637.390 C 365.214 637.101, 366.498 635.939, 367.103 634.807 C 368.629 631.957, 366.782 628.808, 362.013 626.128 C 357.357 623.511, 351.446 623.469, 337.337 625.953 M 235.099 627.601 C 232.598 630.781, 232.413 631.879, 230.496 655 C 227.917 686.117, 226.243 718.512, 226.968 723.291 C 227.821 728.910, 230.263 732.777, 233.467 733.581 C 234.848 733.928, 238.642 733.311, 242.204 732.160 C 245.667 731.041, 258.850 727.124, 271.500 723.456 C 293.752 717.003, 298.982 714.928, 303.750 710.664 C 306.421 708.275, 306.886 702.277, 304.473 701.351 C 301.957 700.386, 288.843 702.732, 264.377 708.525 C 251.659 711.536, 240.906 714, 240.480 714 C 239.552 714, 240.348 699.323, 243.140 665 C 245.325 638.141, 245.699 627.940, 244.567 626.109 C 244.190 625.499, 242.366 625, 240.514 625 C 238.077 625, 236.579 625.719, 235.099 627.601 M 633.073 629.635 C 631.748 631.318, 630.994 633.755, 630.984 636.385 C 630.961 642.040, 627.366 683.513, 625.921 694.774 C 625.274 699.826, 624.406 703.751, 623.994 703.496 C 623.581 703.241, 620.879 698.863, 617.988 693.766 C 609.663 679.089, 599.272 664.422, 590.964 655.622 C 586.490 650.883, 582.798 645.975, 582.100 643.838 C 581.442 641.825, 580.213 639.912, 579.370 639.588 C 576.346 638.428, 573.458 639.036, 572.165 641.107 C 570.023 644.538, 568.920 660.383, 568.704 690.851 C 568.523 716.273, 568.701 720.021, 570.286 724.128 C 572.449 729.732, 575.048 732.272, 578.168 731.830 L 580.500 731.500 581.111 702.500 C 581.447 686.550, 581.785 671.959, 581.861 670.076 L 582 666.651 584.619 669.076 C 587.821 672.039, 605.766 699.093, 612.893 711.701 C 619.777 723.880, 625.204 728.340, 630.929 726.523 C 634.664 725.337, 635.603 722, 638.480 699.686 C 640.143 686.787, 644 641.149, 644 634.368 C 644 629.391, 642.053 627, 638.001 627 C 636.107 627, 634.447 627.887, 633.073 629.635 M 763.238 628.993 C 762.007 630.140, 760.999 631.398, 760.999 631.789 C 760.993 634.405, 756.815 682.384, 755.885 690.500 C 754.158 705.582, 754.272 705.537, 747.497 693.824 C 736.945 675.583, 724.259 658.252, 715.097 649.563 C 713.394 647.948, 712 645.910, 712 645.035 C 712 639.379, 704.454 636.851, 701.415 641.489 C 699.176 644.906, 697.789 669.857, 698.189 699.500 C 698.492 721.921, 698.563 722.613, 701.013 727 C 703.079 730.700, 704.100 731.556, 706.763 731.813 L 710 732.127 710.002 722.313 C 710.004 716.916, 710.303 701.955, 710.667 689.066 L 711.330 665.632 714.246 669.066 C 719.310 675.028, 729.491 690.079, 736.523 702 C 747.669 720.894, 749.028 722.854, 752.454 724.972 C 758.794 728.890, 762.882 727.086, 764.854 719.500 C 766.552 712.968, 769.929 683.228, 771.950 657 C 774.061 629.616, 773.842 627.732, 768.481 627.204 C 766.507 627.010, 764.707 627.625, 763.238 628.993 M 431.140 646.037 C 426.181 661.063, 421 678.864, 421 680.877 C 421 681.958, 422.139 682.117, 426.250 681.611 C 436.834 680.307, 445.796 678.744, 447.019 677.988 C 447.986 677.391, 447.462 674.373, 444.740 664.856 C 442.796 658.060, 440.169 648.112, 438.903 642.750 C 437.637 637.388, 436.341 633, 436.022 633 C 435.703 633, 433.506 638.867, 431.140 646.037" stroke="none" fill="#fecc4f" fill-rule="evenodd"/><path d="M 279.638 318.100 C 262.134 320.656, 251.704 331.485, 247.470 351.500 C 245.065 362.867, 245.053 402.099, 247.451 413.353 C 252.700 437.992, 266.579 447.946, 294 446.735 C 306.624 446.178, 313.661 443.811, 320.444 437.840 C 328.409 430.829, 332.945 418.498, 332.983 403.750 L 333 397 320.136 397 L 307.272 397 306.636 401.640 C 306.286 404.191, 306 407.774, 306 409.602 C 306 414.285, 302.445 423.234, 299.476 426.022 C 297.603 427.782, 295.505 428.481, 291.147 428.796 C 281.151 429.519, 277.118 425.828, 273.886 413 C 271.967 405.386, 271.958 360.959, 273.873 352.500 C 276.782 339.650, 280.364 336, 290.065 336 C 295.676 336, 296.483 336.283, 299.510 339.310 C 303 342.800, 304.428 346.805, 305.548 356.250 L 306.230 362 319.263 362 L 332.296 362 331.728 353.250 C 331.055 342.868, 328.345 334.931, 323.568 329.350 C 315.210 319.586, 298.596 315.331, 279.638 318.100 M 351 382.500 L 351 445 389.500 445 L 428 445 428 435 L 428 425 403 425 L 378 425 378 407.500 L 378 390 400.500 390 L 423 390 423 380 L 423 370 400.500 370 L 378 370 378 355 L 378 340 402 340 L 426 340 426 330 L 426 320 388.500 320 L 351 320 351 382.500 M 444 382.500 L 444 445 456 445 L 468 445 468.030 400.750 C 468.048 374.722, 468.424 357.119, 468.943 358.004 C 469.427 358.831, 473.245 368.611, 477.426 379.737 C 481.607 390.863, 485.422 400.986, 485.904 402.233 C 486.387 403.480, 487.479 406.300, 488.331 408.500 C 490.292 413.563, 495.897 428.310, 499.448 437.750 L 502.175 445 517.587 445 L 533 445 533 382.500 L 533 320 520.511 320 L 508.021 320 507.761 362.920 L 507.500 405.839 499.608 385.170 C 495.268 373.801, 487.889 354.488, 483.210 342.250 L 474.703 320 459.352 320 L 444 320 444 382.500 M 547 330 L 547 340 561.500 340 L 576 340 576 392.500 L 576 445 589.500 445 L 603 445 603 392.500 L 603 340 617.500 340 L 632 340 632 330 L 632 320 589.500 320 L 547 320 547 330 M 646 382.500 L 646 445 659.500 445 L 673 445 673 418.500 L 673 392 682.750 392.002 C 694.061 392.003, 698.314 393.564, 701.355 398.830 C 702.947 401.587, 703.427 405.287, 704.147 420.330 C 704.625 430.324, 705.498 439.962, 706.086 441.750 L 707.155 445 722.252 445 L 737.349 445 735.096 442.602 C 732.499 439.837, 731.578 434.221, 730.130 412.288 C 729.343 400.358, 728.816 397.394, 726.846 393.827 C 724.038 388.741, 719.427 385.417, 713.881 384.480 C 709.437 383.729, 709.663 383.023, 715 380.982 C 723.977 377.548, 728.914 370.735, 731.109 358.750 C 733.173 347.481, 730.349 336.298, 723.638 329.165 C 715.957 321.001, 710.804 320.026, 675.250 320.012 L 646 320 646 382.500 M 753 382.500 L 753 445 791 445 L 829 445 829 435 L 829 425 804.500 425 L 780 425 780 407.500 L 780 390 802.500 390 L 825 390 825 380 L 825 370 802.500 370 L 780 370 780 355 L 780 340 804 340 L 828 340 828 330 L 828 320 790.500 320 L 753 320 753 382.500 M 673 356.500 L 673 375 679.451 375 C 698.842 375, 706.935 367.387, 704.538 351.403 C 703.644 345.443, 699.031 340.248, 693.500 338.971 C 691.300 338.463, 685.788 338.037, 681.250 338.024 L 673 338 673 356.500 M 522.602 485.154 C 511.197 486.722, 502.862 493.118, 499.520 502.867 C 495.350 515.031, 495.122 547.710, 499.117 560.644 C 503.158 573.726, 513.211 580, 530.134 580 C 540.337 580, 547.166 577.810, 552.611 572.791 C 560.547 565.475, 563 555.964, 563 532.500 C 563 509.755, 560.321 499.169, 552.767 492.058 C 546.576 486.231, 534.641 483.499, 522.602 485.154 M 433 532.500 L 433 579 442.500 579 L 452 579 452 559 L 452 539 468.500 539 L 485 539 485 531.500 L 485 524 468.500 524 L 452 524 452 512.500 L 452 501 470 501 L 488 501 488 493.500 L 488 486 460.500 486 L 433 486 433 532.500 M 577 532.373 L 577 579 586.479 579 L 595.958 579 596.229 559.250 L 596.500 539.500 604.179 539.500 C 617.166 539.500, 619.787 543.262, 619.923 562.101 C 619.965 567.931, 620.494 574.119, 621.098 575.851 L 622.196 579 633.128 579 L 644.060 579 642.048 576.250 C 640.394 573.989, 639.874 571.004, 639.120 559.460 C 637.875 540.404, 636.374 537.104, 627.782 534.520 L 623.500 533.233 627.754 531.506 C 633.149 529.316, 636.540 525.289, 638.475 518.771 C 642.482 505.279, 637.716 493.187, 626.500 488.391 C 623.249 487, 618.240 486.593, 599.750 486.213 L 577 485.745 577 532.373 M 522.143 500.533 C 517.105 504.772, 516.500 508.199, 516.500 532.500 C 516.500 556.916, 517.094 560.219, 522.271 564.574 C 525.003 566.873, 526.089 567.157, 530.688 566.776 C 541.327 565.894, 543.435 560.225, 543.435 532.500 C 543.435 509.806, 542.078 503.237, 536.711 499.965 C 532.069 497.135, 525.896 497.375, 522.143 500.533 M 596 513.401 L 596 527 602.532 527 C 614.755 527, 620 522.760, 620 512.881 C 620 507.831, 619.601 506.585, 617.083 503.766 C 614.253 500.598, 613.892 500.489, 605.083 500.151 L 596 499.801 596 513.401" stroke="none" fill="#ffffff" fill-rule="evenodd"/><path d="M 477.875 8 C 477.125 14.003, 472.860 16.946, 469.965 13.458 C 467.349 10.305, 467.172 13.749, 469.526 22 C 473.310 35.261, 472.545 36.333, 465.782 27.250 L 461.500 21.500 461.187 24.750 C 460.838 28.361, 460.410 28.503, 454.860 26.840 C 450.068 25.404, 449.419 25.975, 451.426 29.857 C 453.754 34.360, 453.417 35.967, 450 36.650 C 448.350 36.980, 447.016 37.531, 447.036 37.875 C 447.055 38.219, 450.655 41.079, 455.036 44.231 C 461.964 49.216, 463 50.354, 463 52.981 C 463 56.444, 463.429 56.527, 470.962 54.523 C 477.358 52.821, 477.962 53.277, 477.985 59.833 C 478.005 65.672, 480.390 64.904, 480.813 58.922 C 480.985 56.490, 481.435 54.192, 481.813 53.815 C 482.191 53.439, 485.200 53.769, 488.500 54.550 C 496.332 56.402, 496.311 56.405, 495.764 53.546 C 495.237 50.789, 496.781 49.123, 506.466 41.998 L 512.432 37.609 509.110 36.749 C 505.599 35.839, 505.435 34.917, 507.564 28.092 C 508.246 25.909, 508.091 25.748, 505.908 26.366 C 498.539 28.453, 498 28.403, 498 25.625 C 498 21.814, 496.698 22.366, 492.402 28 C 486.666 35.521, 485.697 34.577, 488.554 24.250 C 489.886 19.438, 490.981 14.733, 490.988 13.797 C 490.999 12.201, 490.816 12.199, 488.104 13.755 C 484.613 15.759, 482.496 14.536, 481.485 9.931 C 480.887 7.209, 478.156 5.748, 477.875 8 M 340.061 67.015 C 308.620 71.436, 282.639 92.614, 273.828 121 C 271.765 127.647, 271.505 130.434, 271.548 145.500 C 271.592 161.180, 271.802 163.121, 274.262 170.500 C 281.862 193.297, 299.471 210.216, 324.500 218.770 C 343.927 225.410, 378.722 223.969, 403.500 215.500 C 415.448 211.416, 426 206.339, 426 204.673 C 426 203.872, 424.598 197.880, 422.883 191.358 C 421.169 184.836, 418.993 176.350, 418.048 172.500 C 417.102 168.650, 415.821 165.500, 415.201 165.500 C 414.580 165.500, 410.597 168.425, 406.350 172 L 398.627 178.500 386.563 179 L 374.500 179.500 374.215 189.750 L 373.930 200 361 200 L 348.070 200 347.785 189.750 L 347.500 179.500 337.250 179.215 L 327 178.930 327 186.115 L 327 193.299 314.750 180.513 C 308.012 173.480, 302.352 167.343, 302.170 166.874 C 301.989 166.406, 307.718 160.055, 314.900 152.761 L 327.959 139.500 327.980 146.285 L 328 153.070 338.250 152.785 L 348.500 152.500 348.500 143.500 L 348.500 134.500 337.550 134.214 L 326.601 133.928 314.300 146.199 L 302 158.470 302 144.262 L 302 130.053 312.993 119.277 L 323.987 108.500 336.243 108 C 348.450 107.502, 348.501 107.490, 348.701 105 C 348.811 103.625, 349.187 99.013, 349.536 94.750 L 350.171 87 361.941 87 L 373.711 87 374.348 93.750 C 374.699 97.463, 374.989 102.120, 374.993 104.100 L 375 107.701 384.101 108.347 C 389.107 108.702, 393.607 108.743, 394.101 108.437 C 394.596 108.132, 395 105.182, 395 101.881 L 395 95.881 404.418 105.025 C 409.599 110.053, 414.209 114.243, 414.664 114.334 C 415.456 114.493, 417.306 109.899, 419.028 103.500 C 419.858 100.415, 423.274 88.862, 424.477 85.073 C 425.077 83.183, 424.210 82.506, 416.817 79.090 C 405.849 74.023, 393.967 70.331, 382.672 68.480 C 371.180 66.598, 348.559 65.819, 340.061 67.015 M 585 73.996 C 555.224 81.346, 534.431 102.500, 528.970 131 C 528.390 134.025, 527.925 141.004, 527.937 146.509 C 527.988 170.162, 537.647 189.798, 555.500 202.537 C 577.006 217.884, 603.867 221.423, 639.085 213.550 C 649.445 211.234, 668.113 204.143, 670.910 201.460 C 672.120 200.301, 671.595 197.451, 667.226 181.453 C 664.424 171.193, 661.879 162.546, 661.572 162.238 C 660.351 161.017, 657.205 165.315, 656.614 169.011 C 655.480 176.106, 650.051 189.411, 646.215 194.500 C 639.068 203.979, 629.229 208.689, 614.448 209.704 C 590.132 211.375, 574.665 195.486, 569.470 163.500 C 567.613 152.066, 567.613 140.927, 569.472 129.500 C 573.247 106.289, 582.027 91.687, 596.257 84.955 C 601.684 82.388, 603.639 82.001, 611.212 82.001 C 617.685 82, 621.405 82.554, 625.681 84.154 C 637.378 88.530, 646.950 102.261, 651.490 121.175 C 653.494 129.521, 655.764 133.569, 657.480 131.853 C 657.946 131.388, 667.452 98.877, 669.643 90.258 C 670.146 88.277, 669.357 87.620, 662.856 84.609 C 651.101 79.165, 641.694 76.149, 629.774 74.003 C 615.192 71.377, 595.621 71.374, 585 73.996 M 739.500 73.405 C 725.754 76.094, 712.414 82.617, 705.304 90.125 C 703.546 91.981, 700.846 96.200, 699.304 99.500 C 696.850 104.752, 696.500 106.685, 696.500 115 C 696.500 123.376, 696.831 125.173, 699.294 130.190 C 703.912 139.593, 717.337 150.294, 729.645 154.382 C 732.412 155.301, 738.686 156.491, 743.588 157.025 C 768.379 159.730, 783.663 170.517, 783.329 185.073 C 782.970 200.655, 768.567 210.920, 748.671 209.771 C 738.245 209.168, 731.502 206.211, 723.354 198.668 C 715.116 191.040, 710.124 183.487, 706.846 173.691 C 704.415 166.426, 701.992 162.656, 700.641 164.035 C 700.137 164.550, 690 203.410, 690 204.828 C 690 205.963, 703.397 211.272, 712.927 213.913 C 723.500 216.843, 752.205 218.664, 764.327 217.174 C 793.060 213.643, 814.178 198.288, 818.891 177.500 C 820.332 171.141, 819.650 159.495, 817.537 154.418 C 811.590 140.123, 801.784 134.889, 764.475 126.097 C 750.340 122.766, 739.831 119.045, 736.705 116.263 C 729.581 109.923, 730.855 94.977, 739.159 87.475 C 748.984 78.599, 762.295 77.011, 774.748 83.231 C 783.767 87.735, 792.920 100.408, 796.971 114 C 798.225 118.209, 799.112 119.573, 800.750 119.812 C 802.522 120.071, 803.080 119.385, 803.999 115.812 C 804.609 113.441, 805.735 109.250, 806.501 106.500 C 810.286 92.912, 812.973 81.640, 812.534 81.200 C 812.264 80.931, 804.946 78.960, 796.272 76.820 C 781.847 73.262, 779.048 72.892, 763.500 72.483 C 751.528 72.168, 744.430 72.440, 739.500 73.405 M 334.333 74.524 C 312.723 80.348, 294.152 94.531, 285.966 111.462 C 277.373 129.235, 276.001 149.843, 282.097 169.579 C 289.007 191.949, 309.521 208.975, 337.339 215.426 C 346.717 217.601, 349.916 217.264, 342 214.935 C 317.769 207.806, 300.020 195.366, 290.730 179 C 283.873 166.920, 281.123 145.508, 284.372 129.500 C 289.417 104.650, 307.871 86.046, 338 75.437 C 345.243 72.887, 342.729 72.261, 334.333 74.524 M 452.682 75.651 C 451.017 77.316, 452.275 80.624, 455.289 82.505 C 462.194 86.817, 462.089 85.865, 461.740 141 C 461.466 184.518, 461.221 191.118, 459.716 195.612 C 457.397 202.539, 454.647 205.749, 449.946 207.014 C 446.700 207.888, 446 208.516, 446 210.552 L 446 213.027 479.250 212.763 C 510.784 212.514, 512.500 212.405, 512.500 210.659 C 512.500 209.466, 510.923 208.057, 508.024 206.659 C 505.382 205.385, 502.780 203.163, 501.675 201.238 C 498.689 196.038, 497.853 179.386, 498.191 131.825 C 498.478 91.514, 498.633 88.206, 500.356 85.577 C 501.377 84.020, 503.534 82.247, 505.150 81.637 C 507.475 80.760, 508.026 80.004, 507.794 78.014 L 507.500 75.500 480.432 75.234 C 465.545 75.088, 453.058 75.276, 452.682 75.651 M 588 79.996 C 554.814 88.188, 535.636 112.178, 535.636 145.500 C 535.636 164.096, 540.987 178.547, 552.394 190.755 C 555.747 194.343, 561.065 198.616, 564.727 200.664 C 571.148 204.255, 587.429 210.056, 590.750 209.937 C 591.713 209.902, 589.800 208.991, 586.500 207.911 C 560.672 199.461, 544.145 182.676, 539.508 160.185 C 533.758 132.295, 544.516 105.792, 567.366 91.552 C 575.467 86.503, 579.184 84.794, 590.500 80.911 C 599.775 77.729, 598.731 77.347, 588 79.996 M 731.500 80.687 C 714.365 86.996, 705.882 96.674, 703.401 112.745 C 702.305 119.847, 706.213 130.122, 712.419 136.454 C 715.213 139.306, 716.763 140.708, 715.863 139.570 C 709.853 131.972, 706.845 118.732, 708.862 108.759 C 711.664 94.909, 720.665 85.745, 737.500 79.601 C 739.700 78.798, 740.825 78.134, 740 78.125 C 739.175 78.116, 735.350 79.269, 731.500 80.687 M 467.375 88.250 C 469.419 92.339, 469.512 94.038, 469.811 133 C 470.114 172.348, 469.221 192.634, 466.920 198.730 C 466.182 200.686, 466.187 201.191, 466.937 200.450 C 467.521 199.873, 468.890 195.373, 469.978 190.450 C 471.780 182.298, 471.959 177.611, 471.978 137.899 C 472 93.698, 471.719 89.816, 468.203 85.750 C 465.562 82.696, 465.178 83.855, 467.375 88.250 M 407.938 135.183 C 403.847 139.071, 398.997 143.658, 397.160 145.376 L 393.820 148.500 394.139 142.500 C 394.314 139.200, 394.172 136.050, 393.824 135.500 C 393.474 134.946, 389.242 134.534, 384.346 134.576 L 375.500 134.651 375.214 144.326 L 374.928 154 385.231 154 L 395.534 154 406.267 143.234 C 416.097 133.373, 418.398 129.982, 416.188 128.616 C 415.741 128.340, 412.029 131.295, 407.938 135.183 M 771.963 160.484 C 780.399 165.086, 785.685 170.257, 788.622 176.779 C 793.148 186.826, 791.159 195.169, 782.401 202.878 C 776.689 207.906, 777.731 208.209, 784.669 203.537 C 794.722 196.767, 798.194 187.470, 794.539 177.110 C 790.966 166.984, 782.116 160.342, 768.500 157.569 C 766.424 157.146, 767.491 158.044, 771.963 160.484" stroke="none" fill="#88181a" fill-rule="evenodd"/><path d="M 443.471 382.500 C 443.471 417.150, 443.596 431.180, 443.750 413.678 C 443.903 396.175, 443.903 367.825, 443.749 350.678 C 443.596 333.530, 443.471 347.850, 443.471 382.500 M 546.370 330 C 546.370 335.775, 546.535 338.137, 546.737 335.250 C 546.939 332.363, 546.939 327.637, 546.737 324.750 C 546.535 321.863, 546.370 324.225, 546.370 330 M 389.306 390.747 C 395.800 390.922, 406.150 390.921, 412.306 390.746 C 418.463 390.571, 413.150 390.428, 400.500 390.429 C 387.850 390.429, 382.813 390.573, 389.306 390.747 M 791.306 390.747 C 797.800 390.922, 808.150 390.921, 814.306 390.746 C 820.463 390.571, 815.150 390.428, 802.500 390.429 C 789.850 390.429, 784.813 390.573, 791.306 390.747 M 390.250 424.747 C 397.262 424.919, 408.738 424.919, 415.750 424.747 C 422.762 424.575, 417.025 424.435, 403 424.435 C 388.975 424.435, 383.238 424.575, 390.250 424.747 M 804.465 424.741 L 828.930 425.035 829.268 434.767 L 829.605 444.500 829.552 434.500 L 829.500 424.500 804.750 424.473 L 779.999 424.446 804.465 424.741 M 432.462 532.500 C 432.461 558.350, 432.591 569.068, 432.749 556.319 C 432.907 543.569, 432.907 522.419, 432.749 509.319 C 432.591 496.218, 432.462 506.650, 432.462 532.500 M 596.395 513.500 C 596.396 521.200, 596.553 524.218, 596.743 520.206 C 596.934 516.195, 596.932 509.895, 596.741 506.206 C 596.549 502.518, 596.393 505.800, 596.395 513.500 M 460.750 501.745 C 465.837 501.927, 474.162 501.927, 479.250 501.745 C 484.337 501.564, 480.175 501.415, 470 501.415 C 459.825 501.415, 455.662 501.564, 460.750 501.745 M 543.382 532.500 C 543.384 539.100, 543.546 541.670, 543.741 538.211 C 543.937 534.752, 543.936 529.352, 543.738 526.211 C 543.540 523.070, 543.380 525.900, 543.382 532.500 M 468.208 523.748 L 484.917 524.048 485.257 531.774 L 485.598 539.500 485.799 531.250 L 486 523 468.750 523.224 L 451.500 523.448 468.208 523.748 M 596.446 540.281 C 596.175 540.985, 596.088 550.098, 596.251 560.531 L 596.547 579.500 596.773 559.796 L 597 540.091 603.750 539.742 L 610.500 539.392 603.719 539.196 C 598.979 539.059, 596.789 539.386, 596.446 540.281 M 619.310 556.500 C 619.315 559.800, 619.502 561.029, 619.725 559.232 C 619.947 557.435, 619.943 554.735, 619.715 553.232 C 619.486 551.729, 619.304 553.200, 619.310 556.500" stroke="none" fill="#faeabd" fill-rule="evenodd"/><path d="M 249.185 251.750 C 210.094 293.587, 184.046 334.064, 164.703 383.027 C 146.343 429.504, 137.688 472.197, 136.303 523.122 C 134.370 594.184, 152.149 666.299, 186.938 728.500 C 272.956 882.297, 446.367 962.998, 618.756 929.458 C 724.921 908.802, 818.083 846.632, 878.687 756 C 916.389 699.617, 939.090 634.360, 944.957 565.500 C 946.265 550.143, 946.274 514.004, 944.972 498.500 C 939.297 430.889, 917.280 367.474, 879.528 310 C 864.290 286.802, 851.613 271.031, 831.099 249.752 L 821.698 240 540.931 240 L 260.164 240 249.185 251.750 M 277.270 317.996 C 266.191 320.334, 255.974 328.135, 251.441 337.716 C 246.504 348.153, 245.586 355.197, 245.605 382.500 C 245.618 401.794, 245.989 409.124, 247.230 414.617 C 250.602 429.550, 258.367 439.675, 269.853 444.117 C 277.650 447.133, 296.824 447.929, 305.863 445.614 C 318.063 442.488, 327.228 433.910, 330.536 422.520 C 332.008 417.452, 333.912 404.823, 333.969 399.750 L 334 397 320.139 397 L 306.277 397 305.772 405.870 C 304.810 422.742, 299.205 429.851, 287.732 428.748 C 277.865 427.800, 274.638 421.314, 272.823 398.784 C 271.542 382.878, 272.918 355.710, 275.423 347.460 C 277.528 340.527, 281.573 336.844, 287.732 336.252 C 298.414 335.225, 303.696 340.936, 304.731 354.631 L 305.289 362 319.224 362 L 333.159 362 332.481 355.250 C 330.975 340.254, 328.230 333.360, 321.118 326.707 C 314.041 320.087, 307.052 317.775, 293 317.406 C 286.675 317.239, 279.596 317.505, 277.270 317.996 M 351 382 L 351 445 389.500 445 L 428 445 428 434.500 L 428 424 403 424 L 378 424 378 407.500 L 378 391 400.500 391 L 423 391 423 380.500 L 423 370 400.500 370 L 378 370 378 355 L 378 340 402 340 L 426 340 426 329.500 L 426 319 388.500 319 L 351 319 351 382 M 443.667 319.667 C 443.300 320.033, 443 348.383, 443 382.667 L 443 445 456 445 L 469 445 469.042 401.750 L 469.085 358.500 485.292 401.500 L 501.500 444.500 517.250 444.775 L 533 445.051 533 382.025 L 533 319 520.511 319 L 508.021 319 507.761 362.025 L 507.500 405.050 497.120 377.775 C 491.412 362.774, 484.044 343.413, 480.747 334.750 L 474.753 319 459.543 319 C 451.178 319, 444.033 319.300, 443.667 319.667 M 546.667 319.667 C 546.300 320.033, 546 324.758, 546 330.167 L 546 340 561 340 L 576 340 576 392.500 L 576 445 589.500 445 L 603 445 603 392.500 L 603 340 617.500 340 L 632 340 632 329.500 L 632 319 589.667 319 C 566.383 319, 547.033 319.300, 546.667 319.667 M 646 382 L 646 445 659.500 445 L 673 445 673 418.500 L 673 392 682.250 392.022 C 693.917 392.050, 698.811 393.976, 701.474 399.586 C 702.915 402.623, 703.451 407.201, 704.036 421.463 C 704.442 431.383, 705.264 440.738, 705.863 442.250 L 706.950 445 722.005 445 L 737.060 445 734.927 442.115 C 732.528 438.870, 731.115 429.527, 731.044 416.434 C 730.933 396.030, 726.132 386.724, 714.411 384.190 L 710.500 383.345 715.618 381.106 C 721.905 378.356, 726.181 374.067, 729.184 367.500 C 731.098 363.313, 731.473 360.793, 731.485 352 C 731.499 342.505, 731.232 340.954, 728.697 335.792 C 724.243 326.721, 716.141 321.614, 703.626 319.988 C 699.707 319.479, 685.138 319.048, 671.250 319.031 L 646 319 646 382 M 753 382 L 753 445 791.500 445 L 830 445 830 434.500 L 830 424 805 424 L 780 424 780 407.500 L 780 391 802.500 391 L 825 391 825 380.500 L 825 370 802.500 370 L 780 370 780 355 L 780 340 804 340 L 828 340 828 329.500 L 828 319 790.500 319 L 753 319 753 382 M 673 355.884 L 673 374 682.288 374 C 698.211 374, 704.339 369.042, 704.446 356.072 C 704.551 343.296, 699.158 338.846, 682.750 338.169 L 673 337.767 673 355.884 M 113 439.623 C 112.175 439.763, 94.176 440.397, 73.002 441.031 C 50.203 441.714, 34.257 442.585, 33.897 443.166 C 32.822 444.905, 30.967 460.369, 31.747 461.096 C 32.161 461.482, 37.900 463.466, 44.500 465.503 C 51.100 467.541, 58.975 469.996, 62 470.959 C 65.025 471.921, 71.100 473.787, 75.500 475.104 L 83.500 477.500 76 478.119 C 71.875 478.460, 59.453 478.797, 48.395 478.869 L 28.290 479 26.993 488.048 C 26.228 493.383, 26.066 497.408, 26.598 497.857 C 27.094 498.275, 44.756 504.397, 65.847 511.461 C 94.658 521.111, 104.386 523.993, 104.969 523.050 C 105.948 521.465, 107.241 509.199, 106.547 508.076 C 106.262 507.616, 105.010 507.011, 103.765 506.733 C 102.519 506.455, 93.850 503.882, 84.500 501.016 C 75.150 498.150, 65.475 495.224, 63 494.513 C 52.590 491.522, 52.931 491.130, 66 491.060 C 72.875 491.023, 85.565 490.700, 94.200 490.342 L 109.901 489.691 110.950 484.796 C 111.528 482.104, 111.995 478.461, 111.989 476.701 L 111.977 473.500 84.508 465 L 57.038 456.500 85.914 456.235 L 114.791 455.970 115.362 453.693 C 115.676 452.441, 116.227 448.917, 116.587 445.861 C 117.260 440.131, 116.616 439.010, 113 439.623 M 1025.586 449.861 C 1025.210 450.469, 1025.129 452.436, 1025.405 454.233 C 1027.216 466.029, 1026.644 465, 1031.390 465 C 1035.933 465, 1038.186 466.603, 1039.444 470.733 C 1040.726 474.944, 1032.869 479.977, 1024.986 479.994 C 1022.524 480, 1022.436 479.736, 1020.663 467.075 C 1018.068 448.549, 1018.587 449.691, 1013.109 450.476 C 1002.622 451.979, 995.182 455.044, 990.814 459.661 C 987.270 463.406, 985.999 467.016, 986.006 473.315 C 986.020 486.953, 992.485 495.506, 1004.695 498.041 C 1009.263 498.989, 1012.270 498.889, 1021.383 497.488 C 1035.745 495.280, 1041.918 492.940, 1046.366 488.017 C 1050.450 483.496, 1051.502 479.266, 1050.691 470.631 C 1049.764 460.759, 1046.472 454.847, 1040.057 451.530 C 1036.190 449.530, 1026.482 448.411, 1025.586 449.861 M 1006.275 468.050 C 1000.723 469.233, 998 471.641, 998 475.368 C 998 480.646, 1001.249 482.494, 1009.848 482.106 C 1012.131 482.003, 1012.177 481.825, 1011.487 475.750 C 1010.578 467.738, 1010.220 467.210, 1006.275 468.050 M 520.267 485.054 C 506.878 487.697, 499.483 496.550, 496.922 513 C 495.343 523.145, 496.265 552.747, 498.371 559.500 C 500.929 567.702, 505.004 573.149, 511.073 576.473 C 515.930 579.135, 517.616 579.487, 527.128 579.830 C 540.954 580.328, 547.310 578.606, 553.381 572.717 C 559.481 566.800, 561.884 559.734, 562.950 544.579 C 564.047 529.003, 562.754 510.007, 560.128 503.094 C 556.146 492.615, 549.501 487.062, 538.566 485.077 C 531.820 483.852, 526.392 483.846, 520.267 485.054 M 432 532.500 L 432 579 442 579 L 452 579 452 559 L 452 539 469 539 L 486 539 486 531 L 486 523 469 523 L 452 523 452 512.500 L 452 502 470 502 L 488 502 488 494 L 488 486 460 486 L 432 486 432 532.500 M 577 532.419 L 577 579 587 579 L 597 579 597 559.500 L 597 540 604.566 540 C 617.349 540, 618.439 541.570, 619.394 561.375 C 619.762 569.006, 620.515 576.094, 621.067 577.125 C 621.956 578.786, 623.341 579, 633.190 579 L 644.310 579 642.449 576.944 C 640.947 575.284, 640.422 572.346, 639.726 561.694 C 639.252 554.437, 638.384 546.581, 637.798 544.236 C 636.626 539.548, 631.297 534, 627.965 534 C 625.166 534, 625.530 532.156, 628.476 531.417 C 631.912 530.554, 637.654 523.910, 638.928 519.321 C 640.296 514.393, 640.282 506.574, 638.896 501.500 C 637.338 495.795, 633.835 491.630, 628.302 488.901 C 623.744 486.653, 622.318 486.515, 600.250 486.186 L 577 485.839 577 532.419 M 524.315 499.417 C 522.563 500.205, 520.427 502.207, 519.569 503.867 C 514.841 513.010, 514.808 551.927, 519.521 561.041 C 522.973 567.717, 533.050 568.865, 538.145 563.163 C 541.950 558.905, 543 552.274, 543 532.500 C 543 512.675, 541.950 506.061, 538.145 501.915 C 534.907 498.386, 528.987 497.317, 524.315 499.417 M 597 513.645 L 597 527.290 603.925 526.710 C 607.734 526.390, 612.269 525.395, 614.004 524.498 C 622.121 520.300, 621.830 504.916, 613.568 501.464 C 611.641 500.659, 607.125 500, 603.532 500 L 597 500 597 513.645 M 1030.207 512.984 L 1030.500 521.237 1034.500 521.583 C 1041.171 522.161, 1043.028 522.942, 1044.037 525.597 C 1045.294 528.905, 1044.403 532.267, 1041.844 533.865 C 1038.933 535.683, 1021.927 537.332, 1014.400 536.526 C 1007.408 535.777, 1004.430 533.957, 1003.456 529.837 C 1002.616 526.283, 1005.700 523.232, 1010.986 522.386 L 1015 521.744 1015 513.872 C 1015 506.306, 1014.910 506, 1012.682 506 C 1004.331 506, 994.917 512.109, 992.350 519.193 C 990.646 523.898, 990.737 532.873, 992.545 538.178 C 996.141 548.733, 1005.119 553.191, 1022.683 553.146 C 1046.814 553.084, 1056 546.558, 1056 529.477 C 1056 514.860, 1049.480 507.320, 1035.207 505.431 L 1029.915 504.731 1030.207 512.984 M 38.250 526.748 L 24 527.055 24 535.595 L 24 544.136 47.382 543.818 C 69.220 543.521, 70.904 543.626, 72.882 545.405 C 75.542 547.797, 75.695 553.061, 73.171 555.345 C 71.677 556.697, 69.072 557.001, 58.921 557.005 C 52.090 557.007, 41.485 557.298, 35.355 557.651 L 24.209 558.294 24.739 566.397 C 25.030 570.854, 25.321 574.521, 25.384 574.548 C 25.448 574.574, 37.200 574.335, 51.500 574.017 C 80.297 573.378, 82.218 572.971, 86.040 566.701 C 89.551 560.943, 88.411 550.216, 83.759 545.250 L 81.651 543 86.175 543 C 88.663 543, 94.141 542.709, 98.349 542.353 L 106 541.707 106 533.853 L 106 526 79.250 526.220 C 64.537 526.341, 46.088 526.579, 38.250 526.748 M 998.207 563.992 C 994.799 565.539, 993.487 566.905, 991.845 570.617 C 988.993 577.064, 989.623 584.506, 993.443 589.515 L 996.234 593.174 993.367 592.837 C 990.509 592.501, 990.498 592.522, 989.776 599.500 C 989.378 603.350, 989.224 606.992, 989.435 607.594 C 989.653 608.218, 994.040 608.983, 999.659 609.377 C 1005.071 609.756, 1018.725 610.894, 1030 611.905 C 1041.275 612.917, 1050.725 613.540, 1051 613.290 C 1051.778 612.582, 1052.589 597.864, 1051.874 597.422 C 1051.260 597.042, 1039.494 595.870, 1018.228 594.070 C 1005.560 592.998, 1003 591.641, 1003 586 C 1003 580.618, 1006.038 578.561, 1012.723 579.416 C 1020.247 580.379, 1053.233 583.101, 1053.544 582.785 C 1053.698 582.628, 1054.138 578.888, 1054.522 574.472 L 1055.219 566.445 1029.860 564.205 C 1015.912 562.973, 1004.050 561.983, 1003.500 562.005 C 1002.950 562.026, 1000.568 562.921, 998.207 563.992 M 56.500 584.084 C 41.982 586.037, 34.281 589.450, 29.884 595.882 C 27.791 598.943, 27.506 600.476, 27.550 608.434 C 27.590 615.626, 28.034 618.327, 29.694 621.500 C 33.432 628.643, 39.279 632, 47.980 632 L 53.024 632 52.460 627.750 C 50.975 616.562, 51.396 617.326, 46.331 616.632 C 43.785 616.283, 41.094 615.493, 40.351 614.876 C 38.316 613.188, 38.684 607.596, 40.965 605.532 C 42.514 604.130, 52.011 601.096, 55.102 601.016 C 55.433 601.007, 56.514 607.766, 57.504 616.035 C 58.495 624.305, 59.640 631.278, 60.050 631.531 C 60.460 631.784, 64.459 631.352, 68.937 630.570 C 84.802 627.800, 91.952 621.242, 91.984 609.432 C 92.015 597.667, 87.928 589.956, 79.379 585.653 C 75.291 583.595, 65.249 582.906, 56.500 584.084 M 67.750 599.659 C 65.955 600.159, 65.946 600.871, 67.599 611.757 C 68.047 614.712, 68.345 614.956, 70.797 614.388 C 76.529 613.059, 79.483 610.602, 79.799 606.900 C 80.002 604.509, 79.527 602.886, 78.299 601.784 C 76.353 600.037, 70.572 598.873, 67.750 599.659 M 506.206 606.557 C 497.545 608.888, 489.919 613.156, 483.972 619 C 476.854 625.994, 473.671 632.486, 473.185 641 C 472.849 646.890, 473.049 647.719, 475.313 649.836 C 477.331 651.723, 478.194 651.967, 479.800 651.107 C 481.840 650.016, 484 645.213, 484 641.771 C 484 638.975, 494.718 628.683, 500.882 625.560 C 515.151 618.329, 527.171 622.873, 530.015 636.573 C 533.104 651.452, 525.212 668.846, 512.603 674.950 C 504.593 678.828, 504.832 679.335, 505.186 659.206 C 505.463 643.522, 505.290 641.092, 503.727 638.706 C 501.800 635.765, 497.104 634.962, 495.211 637.250 C 493.627 639.165, 492.736 685.416, 493.789 711.110 C 494.644 731.985, 494.894 734.039, 497.042 737.860 C 499.474 742.188, 502.650 743.331, 504.857 740.673 C 505.560 739.825, 506.056 731.829, 506.229 718.539 L 506.500 697.733 520 708.223 C 527.425 713.992, 537.883 722.632, 543.240 727.423 C 551.227 734.567, 553.476 736.078, 555.740 735.817 C 557.960 735.562, 558.775 734.705, 559.905 731.436 C 562.727 723.273, 560.684 720.676, 536.169 701.262 C 528.101 694.873, 521.327 689.515, 521.116 689.355 C 520.904 689.195, 524.054 685.523, 528.116 681.195 C 535.768 673.040, 541.071 663.994, 542.931 655.924 C 544.445 649.356, 544.211 636.234, 542.458 629.460 C 537.257 609.354, 524.875 601.532, 506.206 606.557 M 819.124 610.127 C 800.905 619.315, 783.044 654.048, 782.642 681.068 C 782.511 689.881, 782.737 691.100, 785.510 696.525 C 793.990 713.113, 816.631 716.774, 835.109 704.546 C 837.226 703.146, 839.353 702, 839.836 702 C 840.320 702, 840.995 704.681, 841.338 707.957 C 842.290 717.066, 845.979 730.600, 848.142 732.922 C 849.207 734.065, 850.905 735, 851.917 735 C 855.975 735, 856.218 733.114, 854.581 714.304 C 853.727 704.497, 852.725 689.800, 852.355 681.644 L 851.681 666.815 859.590 667.011 C 870.732 667.287, 870.819 667.272, 873.545 664.545 C 876.870 661.221, 876.985 655.354, 873.750 654.051 C 872.513 653.553, 863.400 652.625, 853.500 651.988 C 827.634 650.326, 816.705 652.356, 813.321 659.453 C 811.687 662.879, 811.700 663.121, 813.651 665.734 C 816.110 669.028, 819.050 669.837, 825 668.859 C 827.475 668.452, 831.354 668.092, 833.619 668.060 C 837.616 668.002, 837.757 668.111, 838.358 671.750 C 838.699 673.813, 838.983 677.591, 838.989 680.146 C 838.999 684.190, 838.557 685.182, 835.582 687.794 C 824.630 697.410, 802.962 697.780, 797.967 688.436 C 795.799 684.379, 796.259 672.808, 798.941 663.926 C 804.625 645.101, 820.396 621, 827.030 621 C 828.061 621, 830.368 622.819, 832.155 625.043 C 836.246 630.134, 839.341 630.168, 839.823 625.127 C 840.061 622.632, 839.320 620.550, 836.976 617.127 C 831.041 608.461, 826.195 606.561, 819.124 610.127 M 435 610.461 C 430.913 611.888, 429.525 614.314, 422.106 633 C 411.306 660.201, 402.858 689.575, 397.514 718.500 C 394.122 736.858, 393.970 742.414, 396.780 745.224 C 398.594 747.038, 399.291 747.188, 401.410 746.223 C 402.781 745.598, 404.605 743.731, 405.462 742.073 C 406.585 739.903, 416 701.035, 416 698.572 C 416 698.420, 419.712 698.006, 424.250 697.653 C 431.805 697.065, 444.850 695.068, 451 693.559 C 453.420 692.965, 453.673 693.418, 458.895 707.723 C 465.227 725.064, 467.308 729.526, 470.797 733.250 C 473.897 736.558, 475.546 736.717, 477.077 733.857 C 479.063 730.144, 477.522 721.529, 471.920 705.039 L 466.506 689.104 469.753 685.755 C 475.513 679.812, 472.878 672.554, 465.193 673.193 L 461.500 673.500 459.200 666 C 457.935 661.875, 454.473 649.190, 451.507 637.811 C 446.326 617.933, 444.002 611.348, 441.610 609.765 C 440.222 608.847, 439.365 608.937, 435 610.461 M 663.795 624.730 C 661.892 629.033, 661.713 631.210, 661.812 648.802 C 661.929 669.339, 663.189 687.453, 665.585 703 C 667.528 715.616, 668.408 718.034, 672.497 721.997 C 675.811 725.209, 676.036 725.277, 677.873 723.615 C 680.670 721.083, 680.967 717.758, 679.350 707.060 C 676.649 689.180, 675.029 669.547, 674.396 647 C 673.710 622.579, 673.139 620, 668.421 620 C 666.362 620, 665.496 620.885, 663.795 624.730 M 991.830 622.027 C 982.538 626.935, 978.053 643.281, 983.124 653.757 C 987.279 662.339, 1001.334 668.457, 1019.799 669.720 C 1030.083 670.424, 1034.855 669.010, 1039.484 663.886 C 1045.418 657.318, 1047.932 642.874, 1044.426 635.486 C 1042.741 631.935, 1037.799 628.049, 1031.788 625.549 L 1028.076 624.005 1027.099 627.752 C 1024.368 638.231, 1024.426 638.667, 1028.868 640.933 C 1033.833 643.466, 1035.353 645.942, 1034.048 649.374 C 1032.579 653.238, 1029.528 654.339, 1022.184 653.653 C 1018.626 653.320, 1015.585 652.918, 1015.426 652.759 C 1015.266 652.600, 1016.525 645.833, 1018.222 637.722 C 1019.920 629.611, 1021.050 622.716, 1020.733 622.400 C 1019.422 621.088, 1011.964 620.049, 1004 620.068 C 997.548 620.083, 994.616 620.555, 991.830 622.027 M 337.337 625.953 C 322.697 628.530, 313.120 631.023, 311.452 632.691 C 308.990 635.153, 309.622 641.302, 312.622 644.076 L 315.245 646.500 314.599 660.447 C 314.127 670.619, 313.553 674.837, 312.476 676.026 C 310.579 678.122, 310.575 684.055, 312.468 686.559 C 313.601 688.057, 313.949 691.923, 313.990 703.500 C 314.052 720.620, 315.432 725.621, 320.872 728.434 C 326.903 731.553, 341.400 729.544, 360.572 722.933 C 374.905 717.991, 379.523 715.842, 384.335 711.875 C 387.447 709.311, 388.056 708.218, 387.805 705.650 C 387.326 700.762, 383.737 700.038, 373.671 702.799 C 352.397 708.634, 338.966 711.856, 333.250 712.496 L 327 713.196 327 700.666 C 327 689.594, 327.204 688.075, 328.750 687.620 C 329.712 687.337, 338.691 685.726, 348.702 684.040 C 368.518 680.702, 369.658 680.419, 372.250 678.193 C 374.731 676.062, 374.424 673.779, 371.250 670.751 C 367.156 666.845, 363.350 665.737, 356.500 666.459 C 350.549 667.086, 334.573 669.566, 330.250 670.534 C 328 671.038, 328 671.036, 328 657.133 L 328 643.227 332.750 642.558 C 342.630 641.166, 362.570 637.895, 364.251 637.390 C 365.214 637.101, 366.498 635.939, 367.103 634.807 C 368.629 631.957, 366.782 628.808, 362.013 626.128 C 357.357 623.511, 351.446 623.469, 337.337 625.953 M 235.099 627.601 C 232.598 630.781, 232.413 631.879, 230.496 655 C 227.917 686.117, 226.243 718.512, 226.968 723.291 C 227.821 728.910, 230.263 732.777, 233.467 733.581 C 234.848 733.928, 238.642 733.311, 242.204 732.160 C 245.667 731.041, 258.850 727.124, 271.500 723.456 C 293.752 717.003, 298.982 714.928, 303.750 710.664 C 306.421 708.275, 306.886 702.277, 304.473 701.351 C 301.957 700.386, 288.843 702.732, 264.377 708.525 C 251.659 711.536, 240.906 714, 240.480 714 C 239.552 714, 240.348 699.323, 243.140 665 C 245.325 638.141, 245.699 627.940, 244.567 626.109 C 244.190 625.499, 242.366 625, 240.514 625 C 238.077 625, 236.579 625.719, 235.099 627.601 M 633.073 629.635 C 631.748 631.318, 630.994 633.755, 630.984 636.385 C 630.961 642.040, 627.366 683.513, 625.921 694.774 C 625.274 699.826, 624.406 703.751, 623.994 703.496 C 623.581 703.241, 620.879 698.863, 617.988 693.766 C 609.663 679.089, 599.272 664.422, 590.964 655.622 C 586.490 650.883, 582.798 645.975, 582.100 643.838 C 581.442 641.825, 580.213 639.912, 579.370 639.588 C 576.346 638.428, 573.458 639.036, 572.165 641.107 C 570.023 644.538, 568.920 660.383, 568.704 690.851 C 568.523 716.273, 568.701 720.021, 570.286 724.128 C 572.449 729.732, 575.048 732.272, 578.168 731.830 L 580.500 731.500 581.111 702.500 C 581.447 686.550, 581.785 671.959, 581.861 670.076 L 582 666.651 584.619 669.076 C 587.821 672.039, 605.766 699.093, 612.893 711.701 C 619.777 723.880, 625.204 728.340, 630.929 726.523 C 634.664 725.337, 635.603 722, 638.480 699.686 C 640.143 686.787, 644 641.149, 644 634.368 C 644 629.391, 642.053 627, 638.001 627 C 636.107 627, 634.447 627.887, 633.073 629.635 M 763.238 628.993 C 762.007 630.140, 760.999 631.398, 760.999 631.789 C 760.993 634.405, 756.815 682.384, 755.885 690.500 C 754.158 705.582, 754.272 705.537, 747.497 693.824 C 736.945 675.583, 724.259 658.252, 715.097 649.563 C 713.394 647.948, 712 645.910, 712 645.035 C 712 639.379, 704.454 636.851, 701.415 641.489 C 699.176 644.906, 697.789 669.857, 698.189 699.500 C 698.492 721.921, 698.563 722.613, 701.013 727 C 703.079 730.700, 704.100 731.556, 706.763 731.813 L 710 732.127 710.002 722.313 C 710.004 716.916, 710.303 701.955, 710.667 689.066 L 711.330 665.632 714.246 669.066 C 719.310 675.028, 729.491 690.079, 736.523 702 C 747.669 720.894, 749.028 722.854, 752.454 724.972 C 758.794 728.890, 762.882 727.086, 764.854 719.500 C 766.552 712.968, 769.929 683.228, 771.950 657 C 774.061 629.616, 773.842 627.732, 768.481 627.204 C 766.507 627.010, 764.707 627.625, 763.238 628.993 M 431.140 646.037 C 426.181 661.063, 421 678.864, 421 680.877 C 421 681.958, 422.139 682.117, 426.250 681.611 C 436.834 680.307, 445.796 678.744, 447.019 677.988 C 447.986 677.391, 447.462 674.373, 444.740 664.856 C 442.796 658.060, 440.169 648.112, 438.903 642.750 C 437.637 637.388, 436.341 633, 436.022 633 C 435.703 633, 433.506 638.867, 431.140 646.037 M 89.953 635.381 C 89.545 635.788, 81.765 637.626, 41.750 646.765 C 37.933 647.637, 35 648.839, 35 649.531 C 35 650.204, 35.727 653.974, 36.615 657.908 C 37.924 663.702, 38.543 664.962, 39.874 664.540 C 40.778 664.253, 45.339 663.162, 50.009 662.115 C 54.679 661.068, 62.741 659.246, 67.924 658.065 C 73.200 656.863, 78.587 656.190, 80.162 656.536 C 83.812 657.337, 86.863 661.289, 87.654 666.240 C 88.192 669.604, 88.592 670.108, 90.392 669.691 C 91.551 669.423, 95.130 668.637, 98.344 667.945 C 104.131 666.698, 104.181 666.657, 103.579 663.645 C 102.711 659.303, 100.392 656.164, 96.247 653.718 L 92.641 651.591 95.832 650.764 C 98.691 650.023, 98.952 649.655, 98.342 647.219 C 95.378 635.376, 95.437 635.507, 92.903 635.204 C 91.540 635.041, 90.213 635.121, 89.953 635.381 M 995 637 C 991.301 640.699, 992.566 645.228, 998.083 648.043 C 1003.064 650.584, 1004.845 650.513, 1005.473 647.750 C 1007.318 639.627, 1007.815 636.510, 1007.379 635.804 C 1007.106 635.362, 1004.659 635, 1001.941 635 C 998.333 635, 996.460 635.540, 995 637 M 957.540 662.935 C 956.359 664.846, 952.149 677.482, 952.557 677.891 C 952.813 678.146, 957.974 680.019, 964.027 682.052 L 975.032 685.749 972.285 687.549 C 968.103 690.289, 966.232 693.032, 964.945 698.308 C 963.956 702.365, 964.035 703.803, 965.451 707.511 C 968.305 714.984, 974.306 719.179, 990.500 725.024 C 997.957 727.716, 1001.043 728.292, 1008.500 728.386 C 1016.347 728.485, 1017.905 728.211, 1020.664 726.243 C 1026.862 721.822, 1029.833 711.038, 1026.574 704.791 C 1025.181 702.120, 1025.200 702.090, 1027.955 702.641 C 1030.623 703.175, 1030.845 702.916, 1032.874 696.906 C 1034.044 693.444, 1035 690.112, 1035 689.502 C 1035 688.892, 1030.162 686.755, 1024.250 684.752 C 1018.337 682.750, 1001.011 676.857, 985.746 671.657 C 970.482 666.457, 957.789 662.532, 957.540 662.935 M 84.500 675.960 C 71.825 678.654, 58.273 684.849, 53.502 690.129 C 48.137 696.067, 47.572 705.722, 52.002 715.737 C 55.996 724.766, 60.953 728.011, 70.718 727.985 C 79.370 727.962, 79.831 727.398, 77.409 719.810 L 75.395 713.500 69.603 712.980 C 61.575 712.260, 58.891 708.456, 62.638 703.106 C 64.484 700.470, 74.919 695.463, 75.993 696.697 C 76.377 697.139, 78.783 703.535, 81.339 710.910 C 83.895 718.286, 86.212 724.545, 86.487 724.820 C 87.252 725.586, 100.162 720.284, 104.703 717.340 C 110.661 713.476, 114 707.760, 114 701.426 C 114 691.612, 108.776 681.457, 101.930 677.965 C 97.207 675.555, 90.199 674.749, 84.500 675.960 M 87.750 691.689 C 86.787 691.941, 86 692.268, 86 692.417 C 86 692.671, 89.468 702.990, 90.491 705.780 C 91.068 707.353, 97.473 704.348, 100.369 701.147 C 102.456 698.839, 102.056 695.199, 99.427 692.570 C 97.923 691.066, 91.879 690.610, 87.750 691.689 M 981.125 692.875 C 979.005 694.995, 978.373 698.562, 979.765 700.548 C 982.726 704.773, 1001.329 712, 1009.243 712 C 1014.363 712, 1017 709.851, 1017 705.678 C 1017 701.981, 1011.215 697.997, 1000.893 694.585 C 988.992 690.652, 983.797 690.203, 981.125 692.875 M 934.235 721.555 L 931.077 729.121 937.256 732.043 C 940.654 733.651, 943.744 734.636, 944.122 734.233 C 944.499 733.830, 946.176 730.457, 947.847 726.738 L 950.886 719.976 946.193 717.617 C 937.422 713.210, 937.765 713.096, 934.235 721.555 M 953.301 730.396 L 950.214 737.792 977.770 750.146 C 992.925 756.941, 1005.689 762.646, 1006.134 762.824 C 1007.184 763.244, 1013.968 748.712, 1013.134 747.825 C 1012.288 746.924, 958.489 723, 957.310 723 C 956.803 723, 954.999 726.328, 953.301 730.396 M 928.241 734.250 C 925.243 737.983, 922 746.340, 922 750.332 C 922 755.736, 924.378 759.033, 931.006 762.818 C 935.633 765.461, 935.757 765.649, 934.438 768.030 C 933.686 769.388, 933.055 771.024, 933.035 771.665 C 933.004 772.689, 941.958 778.444, 942.525 777.765 C 942.646 777.619, 943.503 776.010, 944.430 774.190 L 946.113 770.880 954.307 775.302 C 972.995 785.388, 989.730 794, 990.641 794 C 991.681 794, 998.665 780.282, 997.935 779.673 C 997.368 779.200, 985.763 773.002, 969.500 764.486 C 952.710 755.694, 953.560 756.448, 955.996 752.506 C 957.098 750.723, 958 749.018, 958 748.717 C 958 748.081, 949.110 743, 947.995 743 C 947.581 743, 946.679 744.360, 945.991 746.021 C 944.321 750.053, 943.593 750.358, 940.029 748.515 C 936.648 746.767, 936.320 745.217, 938.456 741.085 C 939.906 738.281, 939.893 738.260, 935.071 735.635 C 929.474 732.589, 929.561 732.606, 928.241 734.250 M 122.500 752.110 C 107.650 760.394, 91.761 769.215, 87.190 771.710 C 80.820 775.187, 79.024 776.626, 79.494 777.873 C 80.103 779.487, 95.512 807.496, 99.241 813.767 L 101.184 817.034 107.092 813.786 C 110.341 812, 113 810.171, 113 809.721 C 113 809.272, 110.017 803.509, 106.371 796.915 C 102.725 790.320, 99.913 784.773, 100.121 784.588 C 100.329 784.402, 113.670 776.946, 129.766 768.017 L 159.032 751.783 155.084 744.664 C 152.913 740.749, 150.768 737.433, 150.318 737.296 C 149.868 737.158, 137.350 743.825, 122.500 752.110 M 922.376 786.468 C 917.544 791.511, 915.562 797.102, 916.599 802.765 C 917.268 806.423, 917.242 806.464, 915.313 804.750 C 914.229 803.788, 913.093 803, 912.789 803 C 912.020 803, 903.636 815.974, 904.113 816.425 C 904.326 816.626, 915.959 824.451, 929.964 833.815 L 955.429 850.840 959.714 844.451 C 962.071 840.938, 964 837.676, 964 837.203 C 964 836.730, 955.719 830.806, 945.598 824.038 C 935.476 817.270, 926.621 810.661, 925.920 809.350 C 924.855 807.361, 924.912 806.407, 926.266 803.569 C 928.258 799.392, 930.965 798.413, 934.900 800.448 C 936.550 801.302, 945.557 807.175, 954.914 813.500 C 964.272 819.825, 972.103 825, 972.317 825 C 972.531 825, 974.771 821.895, 977.295 818.100 L 981.883 811.200 959.880 796.600 C 938.103 782.150, 937.820 782, 932.267 782 C 926.930 782, 926.449 782.217, 922.376 786.468 M 146.184 799.901 C 139.720 802.134, 128.305 809.790, 121.919 816.176 C 116.383 821.712, 113.474 828.371, 114.318 833.573 C 115.825 842.860, 124.403 853.842, 131.907 856.090 C 136.774 857.548, 144.988 856.091, 148.942 853.069 L 151.383 851.202 147.474 845.526 C 144.030 840.527, 143.263 839.927, 141.032 840.496 C 134.290 842.217, 131.889 842.209, 129.955 840.460 C 126.691 837.505, 127.463 833.519, 132.188 828.933 C 139.266 822.065, 138.547 821.771, 148.461 835.585 C 153.362 842.413, 157.565 848, 157.802 848 C 158.815 848, 167.803 840.840, 171.201 837.327 C 180.803 827.399, 180.138 815.555, 169.365 804.628 C 162.677 797.844, 156.052 796.493, 146.184 799.901 M 154.069 813.575 C 147.725 816.313, 147.665 816.623, 152.230 823.095 C 154.520 826.343, 156.703 829, 157.080 829 C 158.520 829, 165 820.906, 165 819.108 C 165 816.730, 162.121 813.341, 159.500 812.634 C 158.400 812.338, 155.956 812.761, 154.069 813.575 M 893.286 830.701 C 890.097 831.318, 881.394 839.472, 878.314 844.727 C 875.017 850.353, 874.644 858.700, 877.454 864 C 884.170 876.671, 904.705 892.060, 914.788 891.978 C 921.522 891.924, 932.259 883.296, 936.367 874.638 C 938.617 869.898, 938.436 862.532, 935.944 857.384 C 931.779 848.782, 913.877 833.449, 905.176 831.032 C 901.496 830.010, 897.439 829.897, 893.286 830.701 M 182.500 841.476 C 180.850 842.245, 178.375 843.781, 177 844.890 L 174.500 846.905 179.945 852.431 C 184.715 857.273, 185.582 857.784, 186.945 856.557 C 190.121 853.695, 193.712 853.621, 196.450 856.359 C 199.620 859.529, 199.707 862.988, 196.686 865.826 C 193.271 869.033, 190.768 868.548, 181.499 862.884 C 168.226 854.774, 160.998 855.343, 152.593 865.162 C 145.230 873.764, 145.712 880.859, 154.175 888.467 C 158.290 892.167, 159.916 893, 163.021 893 C 166.805 893, 166.820 893.016, 165.731 895.902 C 164.709 898.608, 164.968 899.173, 169.568 904.272 L 174.500 909.741 179.112 904.615 C 181.649 901.795, 189.830 893.937, 197.292 887.152 C 211.023 874.668, 214 870.732, 214 865.066 C 214 860.540, 209.899 853.215, 204.332 847.796 C 196.769 840.434, 189.348 838.286, 182.500 841.476 M 891.890 846.658 C 889.105 849.892, 888.907 850.843, 890.317 854.206 C 892.753 860.022, 910.221 875.013, 916.354 876.553 C 920.527 877.600, 924 874.789, 924 870.364 C 924 867.237, 923.066 865.846, 916.750 859.572 C 904.180 847.085, 895.435 842.542, 891.890 846.658 M 837.500 859.351 C 831.178 862.298, 821.860 872.185, 820.209 877.698 C 818.547 883.244, 818.687 886.154, 820.894 891.964 C 825.208 903.317, 846.180 927.153, 856.867 932.849 C 868.159 938.867, 878.813 936.436, 888.847 925.550 C 894.123 919.826, 896 915.544, 896 909.228 C 896 903.472, 892.611 896.066, 887.192 889.980 L 883.500 885.834 877.240 891.510 L 870.980 897.186 873.853 900.843 C 880.607 909.440, 881.776 915.458, 877.365 918.927 C 871.995 923.151, 866.633 920.941, 855.992 910.119 C 848.199 902.193, 838.875 890.724, 836.626 886.300 C 834.336 881.793, 834.603 878.307, 837.455 875.455 C 841.558 871.351, 846.176 872.327, 853.185 878.778 L 855.870 881.250 861.935 875.975 C 865.271 873.074, 868 870.411, 868 870.058 C 868 868.462, 859.058 860.907, 855 859.075 C 849.085 856.405, 843.634 856.491, 837.500 859.351 M 166.535 874.104 C 162.425 877.712, 161.980 880.972, 165.189 883.961 C 168.969 887.483, 173.497 886.673, 179.714 881.361 L 185.144 876.722 179.557 873.861 C 172.498 870.247, 170.894 870.276, 166.535 874.104 M 220.428 880.749 C 217.167 884.461, 208.063 894.624, 200.195 903.333 C 192.327 912.043, 186.027 919.470, 186.195 919.838 C 186.363 920.206, 189.037 922.886, 192.139 925.793 L 197.777 931.079 205.639 922.309 C 220.069 906.211, 226.137 900.182, 228.509 899.587 C 231.577 898.817, 235.796 900.462, 239.345 903.814 L 242.190 906.500 247.100 901 C 249.800 897.975, 251.895 894.825, 251.755 894 C 251.615 893.175, 249.475 891.472, 247 890.217 C 243.524 888.453, 241.590 888.080, 238.500 888.581 L 234.500 889.228 236.846 886.698 L 239.191 884.168 234.960 880.345 C 230.015 875.878, 227.723 874.076, 226.928 874.032 C 226.613 874.014, 223.688 877.037, 220.428 880.749 M 249.750 906.250 C 246.819 910.237, 238.649 921.512, 231.595 931.305 C 217.152 951.355, 217.606 948.775, 227.390 955.184 L 232.279 958.388 234.640 955.444 C 235.939 953.825, 241.760 945.856, 247.577 937.736 C 259.442 921.173, 262.096 918.964, 267.051 921.527 C 273.554 924.889, 272.876 926.720, 257.048 948.550 C 249.891 958.423, 244.039 966.725, 244.044 967 C 244.065 968.149, 256.298 976.100, 257.397 975.678 C 258.784 975.146, 284.900 939.074, 287.355 934.300 C 290.889 927.425, 288.464 920.321, 280.864 915.290 C 277.474 913.046, 275.521 912.500, 270.878 912.500 L 265.106 912.500 266.633 910.163 C 267.473 908.878, 268.011 907.712, 267.830 907.572 C 264.233 904.792, 255.957 899, 255.582 899 C 255.305 899, 252.681 902.263, 249.750 906.250 M 309.286 919.876 L 306.072 925.729 313.129 929.938 C 317.010 932.253, 320.290 934.002, 320.417 933.824 C 322.217 931.303, 327 922.738, 327 922.034 C 327 921.066, 315.008 913.991, 313.404 914.012 C 312.907 914.018, 311.054 916.657, 309.286 919.876 M 783.889 925.962 C 775.407 928.530, 765.806 937.292, 763.959 944.151 C 761.633 952.789, 767.990 963.580, 776.801 965.948 C 780.408 966.918, 782.784 966.764, 791.514 964.997 C 802.573 962.759, 804.887 963.052, 806.977 966.957 C 808.564 969.922, 808.218 971.510, 805.364 974.364 C 801.559 978.168, 796.902 977.967, 793.686 973.858 L 791.228 970.717 785.114 974.431 C 781.751 976.474, 779 978.495, 779 978.922 C 779 979.350, 780.298 981.491, 781.884 983.681 C 787.653 991.645, 795.650 992.861, 806.415 987.410 C 815.947 982.584, 823 974.220, 823 967.744 C 823 963.334, 820.408 957.539, 816.508 953.232 C 812.764 949.097, 811.924 948.661, 806.952 948.272 C 803.503 948.003, 798.233 948.618, 792.610 949.947 C 784.706 951.814, 783.474 951.885, 781.494 950.588 C 777.067 947.687, 777.825 942.176, 783.020 939.490 C 786.368 937.758, 787.654 938.204, 791.058 942.278 C 792.561 944.076, 792.838 944.011, 798.808 940.455 C 802.214 938.426, 805 936.385, 805 935.918 C 805 935.451, 803.545 933.412, 801.766 931.386 C 796.764 925.689, 790.784 923.875, 783.889 925.962 M 286.974 957.750 C 278.583 971.913, 271.546 983.811, 271.336 984.192 C 270.864 985.047, 284.868 993.465, 285.580 992.754 C 286.509 991.825, 317.030 939.695, 316.762 939.495 C 315.052 938.220, 303.684 932, 303.062 932 C 302.605 932, 295.365 943.587, 286.974 957.750 M 312.147 972.952 C 304.916 988.326, 299 1001.090, 299 1001.317 C 299 1001.923, 313.994 1008.359, 314.324 1007.895 C 314.479 1007.678, 318.561 998.950, 323.396 988.500 C 332.227 969.414, 335.221 965, 339.333 965 C 342.839 965, 346 967.768, 346 970.839 C 346 972.337, 341.971 982.016, 337.047 992.346 C 332.123 1002.676, 327.845 1011.911, 327.542 1012.868 C 327.109 1014.233, 328.502 1015.340, 333.999 1018 C 338.373 1020.115, 341.356 1021.035, 341.930 1020.445 C 342.437 1019.925, 347.423 1009.825, 353.009 998 C 364.621 973.421, 365.784 968.826, 361.846 963.074 C 357.429 956.624, 345.809 952.891, 339.934 956.035 C 337.752 957.203, 337.542 956.725, 339.022 953.958 C 339.927 952.267, 339.241 951.643, 333.047 948.524 C 329.199 946.586, 325.880 945, 325.672 945 C 325.463 945, 319.377 957.578, 312.147 972.952 M 734.332 952.851 C 725.037 956.063, 718.787 962.365, 717.349 969.975 C 715.305 980.799, 727.153 1006.970, 736.895 1013.149 C 742.363 1016.616, 748.569 1016.916, 756.048 1014.074 C 766.924 1009.941, 771.990 1003.850, 771.996 994.899 C 772 989.979, 770.493 983, 769.427 983 C 769.220 983, 766.105 984.349, 762.505 985.998 C 756.266 988.855, 755.996 989.124, 756.709 991.748 C 757.918 996.196, 757.404 1000.232, 755.444 1001.665 C 752.484 1003.829, 748.620 1003.262, 745.801 1000.250 C 743.230 997.502, 740 991.903, 740 990.194 C 740 989.696, 746.075 986.442, 753.500 982.963 C 760.925 979.485, 766.994 976.157, 766.987 975.569 C 766.980 974.981, 765.172 971.252, 762.971 967.283 C 754.749 952.458, 746.906 948.506, 734.332 952.851 M 652.525 962.129 C 648.689 963.222, 645.409 964.258, 645.236 964.431 C 644.953 964.714, 648.038 977.036, 648.588 977.824 C 648.713 978.002, 652.414 977.177, 656.813 975.990 L 664.811 973.832 662.905 967.169 C 661.857 963.505, 661 960.392, 661 960.253 C 661 959.802, 659.621 960.108, 652.525 962.129 M 734.003 966.723 C 732.331 968.849, 732.005 970.216, 732.519 972.955 C 733.845 980.022, 734.316 980.277, 740.773 977.424 C 747.991 974.234, 748.457 973.740, 746.968 970.857 C 743.245 963.650, 737.789 961.910, 734.003 966.723 M 701.717 967.088 C 699.169 968.431, 697.229 970.533, 695.773 973.531 L 693.611 977.980 692.365 975.016 L 691.118 972.051 683.547 974.774 C 677.772 976.852, 676.124 977.853, 676.598 978.999 C 677.150 980.332, 683.819 999.238, 693.001 1025.500 C 694.732 1030.450, 696.493 1034.856, 696.915 1035.291 C 697.611 1036.009, 710.340 1031.993, 711.709 1030.624 C 712.026 1030.308, 709.517 1022.050, 706.133 1012.274 C 698.974 991.589, 698.623 988.337, 703.140 984.536 C 704.866 983.083, 707.566 981.637, 709.140 981.322 C 710.713 981.007, 711.993 980.244, 711.983 979.625 C 711.953 977.540, 707.261 965.587, 706.376 965.339 C 705.894 965.204, 703.798 965.991, 701.717 967.088 M 462.506 972.374 C 462.322 972.993, 461.908 975.300, 461.587 977.500 C 460.201 986.996, 452.758 1034.231, 451.442 1041.881 C 450.649 1046.491, 450 1050.826, 450 1051.516 C 450 1052.812, 465.663 1055.670, 466.760 1054.574 C 467.070 1054.263, 467.885 1050.295, 468.570 1045.755 C 469.255 1041.215, 471.225 1028.725, 472.947 1018 C 474.669 1007.275, 476.759 994, 477.591 988.500 C 478.422 983, 479.336 977.556, 479.622 976.402 C 480.084 974.535, 479.499 974.181, 474.320 973.192 C 464.488 971.316, 462.856 971.203, 462.506 972.374 M 379.962 974.439 C 371.023 980.305, 362.040 1003.406, 363.210 1017.519 C 363.724 1023.719, 365.793 1027.211, 371.092 1030.823 C 373.886 1032.728, 375.491 1033.077, 380 1032.763 C 383.025 1032.552, 386.339 1032.001, 387.365 1031.538 C 388.983 1030.809, 389.136 1031.017, 388.520 1033.099 C 385.813 1042.251, 381.691 1045.834, 376.108 1043.888 C 372.802 1042.735, 371 1040.399, 371 1037.267 C 371 1035.815, 369.397 1034.930, 363.765 1033.272 C 355.692 1030.894, 355.038 1031.173, 355.019 1037 C 354.995 1044.169, 361.665 1050.860, 372.058 1054.095 C 388.399 1059.181, 397.794 1054.529, 403.425 1038.562 C 409.777 1020.551, 421.030 984.522, 420.630 983.478 C 420.385 982.838, 417.555 981.536, 414.342 980.585 C 411.129 979.633, 407.954 978.630, 407.287 978.356 C 406.592 978.071, 405.796 978.966, 405.423 980.451 L 404.772 983.044 403.032 979.772 C 399.108 972.395, 387.254 969.654, 379.962 974.439 M 658.250 982.287 C 654.263 983.395, 650.985 984.796, 650.966 985.400 C 650.948 986.005, 654.416 999.438, 658.672 1015.250 C 664.575 1037.176, 666.778 1043.999, 667.956 1043.996 C 670.841 1043.989, 682.501 1040.243, 682.357 1039.369 C 681.777 1035.851, 666.699 981.369, 666.171 980.887 C 665.802 980.549, 662.237 981.180, 658.250 982.287 M 389.397 987.745 C 385.067 992.076, 378.382 1011.908, 379.514 1017.064 C 380.712 1022.520, 386.525 1023.629, 390.915 1019.238 C 393.867 1016.287, 398.412 1003.958, 399.553 995.809 C 400.135 991.646, 399.921 990.830, 397.650 988.559 C 394.664 985.573, 391.848 985.295, 389.397 987.745 M 618.445 989.959 C 617.315 990.417, 614.953 992.429, 613.195 994.430 C 610.066 997.995, 610 998.017, 610 995.535 C 610 992.611, 610.128 992.630, 600.838 994.164 L 593.791 995.328 594.309 998.414 C 595.289 1004.264, 605.974 1066.509, 606.768 1071 C 607.462 1074.921, 607.882 1075.494, 610.032 1075.455 C 614.706 1075.371, 624 1073.855, 623.991 1073.178 C 623.986 1072.805, 623.131 1067.550, 622.091 1061.500 C 621.050 1055.450, 620.350 1050.342, 620.535 1050.148 C 620.720 1049.954, 621.900 1050.517, 623.158 1051.398 C 626.725 1053.897, 635.915 1053.532, 640.078 1050.726 C 649.128 1044.628, 651.004 1033.598, 646.421 1013.436 C 643.450 1000.364, 639.705 993.450, 633.998 990.499 C 630.902 988.898, 621.841 988.583, 618.445 989.959 M 486.930 998.250 C 486.891 999.487, 486.072 1013.100, 485.111 1028.500 C 484.149 1043.900, 483.618 1056.788, 483.931 1057.140 C 484.244 1057.491, 487.946 1058.088, 492.157 1058.466 L 499.815 1059.153 500.380 1051.827 C 500.691 1047.797, 501.414 1037.549, 501.987 1029.052 C 503.209 1010.934, 503.982 1009, 510 1009 C 517.535 1009, 517.654 1010.161, 514.388 1051.596 L 513.750 1059.692 522.007 1060.380 C 526.549 1060.759, 530.388 1060.941, 530.538 1060.784 C 530.984 1060.321, 533.453 1019.026, 533.425 1012.500 C 533.391 1004.645, 531.146 1000.423, 525.684 997.943 C 518.552 994.705, 510.151 995.650, 505.250 1000.241 L 503 1002.349 503 999.791 C 503 996.744, 501.072 996.033, 492.750 996.014 C 487.470 996.001, 486.994 996.184, 486.930 998.250 M 555.558 997.492 C 546.730 1000.637, 542.664 1006.123, 542.672 1014.878 C 542.681 1025.407, 546.703 1029.570, 561.274 1034.139 C 571.441 1037.326, 574 1039.108, 574 1043 C 574 1046.646, 570.910 1049.200, 566.500 1049.200 C 562.032 1049.200, 559.209 1046.795, 558.806 1042.645 L 558.500 1039.500 551.194 1039.640 C 547.175 1039.717, 543.685 1039.981, 543.439 1040.228 C 542.521 1041.146, 545.084 1051.590, 546.818 1054 C 547.808 1055.375, 550.599 1057.513, 553.020 1058.750 C 560.808 1062.729, 576.647 1061.212, 583.488 1055.831 C 588.999 1051.496, 591.350 1042.339, 588.864 1034.899 C 586.560 1028.005, 581.265 1024.566, 566.756 1020.541 C 559.530 1018.536, 556.801 1015.226, 559.059 1011.206 C 562.075 1005.840, 569.650 1006.799, 571.361 1012.763 L 572.289 1016 579.781 1016 L 587.272 1016 586.633 1011.337 C 585.200 1000.885, 578.739 995.968, 566.538 996.044 C 562.667 996.068, 557.726 996.720, 555.558 997.492 M 619.008 1002.975 C 613.689 1004.280, 612.905 1011.896, 616.476 1027.596 C 618.740 1037.548, 621.054 1041, 625.462 1041 C 630.965 1041, 632.441 1037.874, 631.668 1027.854 C 631.004 1019.238, 628.517 1008.859, 626.278 1005.354 C 624.674 1002.845, 622.475 1002.125, 619.008 1002.975" stroke="none" fill="#5e5057" fill-rule="evenodd"/></svg>